<?xml version="1.0" standalone="no"?> <!DOCTYPE svg PUBLIC "-//W3C//DTD SVG 20010904//EN" "http://www.w3.org/TR/2001/REC-SVG-20010904/DTD/svg10.dtd"> <svg version="1.0" xmlns="http://www.w3.org/2000/svg" width="166.000000pt" height="235.000000pt" viewBox="0 0 166.000000 235.000000" preserveAspectRatio="xMidYMid meet"> <g transform="translate(0.000000,235.000000) scale(0.100000,-0.100000)" fill="#f4f4f4" stroke="none"> <path d="M690 2207 c-19 -13 -81 -49 -137 -81 l-103 -57 0 -167 0 -167 68 -37 c37 -21 88 -49 113 -63 l45 -26 65 38 c84 50 120 70 207 118 l72 40 0 123 c0 67 1 125 2 130 2 11 -269 172 -290 172 -4 0 -23 -10 -42 -23z m92 -27 c16 -9 25 -20 20 -24 -4 -4 0 -7 8 -6 8 1 22 2 30 1 12 -1 12 -3 2 -10 -10 -6 -3 -10 22 -15 20 -4 36 -11 36 -15 0 -5 15 -15 33 -22 63 -26 67 -34 62 -126 -3 -45 -6 -86 -6 -90 -1 -4 1 -16 6 -26 8 -19 -17 -46 -42 -47 -7 0 -13 -5 -13 -11 0 -5 -4 -8 -9 -5 -5 3 -11 -1 -15 -9 -3 -8 -11 -15 -17 -15 -8 0 -7 5 2 18 14 18 -7 2 -61 -45 -13 -13 -35 -23 -47 -23 -13 0 -23 -4 -23 -10 0 -5 -4 -10 -10 -10 -6 0 -11 96 -13 253 l-2 252 -3 -257 c-1 -197 1 -258 11 -262 6 -3 2 -4 -9 -3 -12 1 -31 -6 -42 -16 -15 -14 -25 -15 -45 -8 -14 5 -29 7 -33 3 -5 -4 -4 0 2 8 9 13 10 24 5 46 0 3 -6 2 -11 -1 -8 -5 -7 -11 1 -21 19 -23 17 -22 -104 44 -38 20 -39 22 -12 17 22 -4 26 -3 15 5 -8 5 -22 10 -30 10 -13 0 -15 22 -15 140 0 120 2 139 15 135 9 -3 8 1 -4 9 -18 14 -17 15 8 22 15 3 23 11 19 17 -4 6 0 8 10 4 10 -3 17 -2 17 3 0 6 4 10 9 10 5 0 33 16 63 35 29 20 63 38 75 41 12 3 24 12 27 20 6 15 24 11 68 -16z"/> <path d="M838 2113 c7 -3 16 -2 19 1 4 3 -2 6 -13 5 -11 0 -14 -3 -6 -6z"/> <path d="M537 2060 c-9 -11 -13 -20 -7 -20 5 0 14 9 20 20 6 11 9 20 8 20 -2 0 -11 -9 -21 -20z"/> <path d="M957 1642 c-94 -55 -125 -77 -115 -84 9 -7 8 -8 -6 -4 -10 4 -35 -3 -57 -16 l-39 -22 0 -200 0 -201 167 -95 c91 -52 170 -96 174 -98 8 -3 210 107 307 168 l43 27 0 199 0 199 -58 35 c-32 20 -96 57 -143 84 -47 27 -98 56 -115 66 l-30 17 -128 -75z m128 29 c-8 -27 27 -47 45 -26 10 12 7 13 -15 9 -17 -3 -24 -1 -20 6 9 14 48 5 74 -17 12 -10 25 -18 29 -18 5 0 20 -13 35 -29 15 -16 27 -23 27 -17 0 7 5 9 10 6 8 -5 7 -12 -2 -23 -9 -12 -6 -11 10 2 12 11 22 14 22 9 0 -6 12 -16 28 -22 15 -6 40 -20 55 -30 23 -15 25 -19 12 -25 -9 -3 -13 -2 -10 3 3 5 1 12 -4 15 -14 9 -7 -19 9 -39 19 -23 19 -337 0 -343 -7 -3 -10 0 -6 7 4 7 2 9 -8 5 -8 -3 -13 -16 -12 -29 2 -15 -1 -22 -10 -18 -14 5 -76 -36 -69 -47 2 -4 -7 -5 -22 -2 -18 3 -24 1 -19 -7 4 -6 2 -12 -3 -12 -21 -3 -26 -5 -53 -22 -66 -41 -78 -47 -93 -47 -9 0 -13 -4 -10 -10 3 -6 -1 -7 -9 -4 -9 3 -14 11 -13 16 1 6 -8 11 -19 13 -12 1 -34 11 -49 23 -15 12 -34 22 -41 22 -8 0 -14 5 -14 10 0 6 -8 10 -17 10 -9 0 -13 3 -10 7 8 7 -52 38 -67 34 -4 -1 -14 3 -22 10 -7 6 -19 7 -25 3 -8 -4 -9 -3 -5 5 4 6 17 9 29 7 12 -3 7 1 -11 9 -20 9 -30 20 -26 27 4 7 3 8 -5 4 -9 -6 -9 -11 1 -24 12 -14 10 -14 -10 -3 -12 7 -20 16 -17 20 2 5 6 87 7 182 l1 173 33 22 c17 12 41 25 53 29 12 3 21 10 21 15 0 12 60 43 68 36 3 -3 0 -6 -7 -6 -7 0 -9 -4 -6 -10 4 -6 -1 -7 -12 -4 -15 5 -16 4 -3 -5 11 -8 18 -7 26 4 6 8 14 12 18 8 4 -4 4 0 1 9 -6 16 29 45 48 40 4 -1 10 5 13 13 4 8 14 15 24 15 10 0 23 7 30 15 17 20 23 19 15 -4z"/> <path d="M1096 1551 c-4 -6 -21 -9 -39 -8 -44 4 -67 -20 -69 -71 -1 -23 -7 -47 -15 -53 -7 -6 -13 -8 -13 -3 0 5 -14 9 -30 10 -17 1 -30 -3 -30 -7 0 -5 -7 -9 -15 -9 -18 0 -24 -24 -27 -111 -2 -50 0 -65 10 -62 6 3 12 0 12 -6 0 -7 20 -11 49 -11 49 0 49 0 53 -36 2 -19 0 -37 -4 -40 -4 -3 -8 -13 -7 -22 0 -14 2 -13 9 3 5 11 9 14 9 7 1 -16 41 -60 41 -45 0 7 12 8 37 3 20 -5 41 -6 47 -3 6 4 21 8 34 9 23 3 23 2 6 -12 -18 -14 -18 -14 4 -4 12 6 20 15 17 20 -3 5 0 12 5 15 7 4 8 19 5 36 -9 40 23 73 64 67 51 -7 65 18 63 110 -3 93 -14 106 -81 96 -31 -5 -42 -4 -37 5 4 6 4 11 -1 11 -4 0 -8 13 -9 30 -1 16 2 27 6 25 4 -2 5 7 2 21 -3 19 -7 22 -13 12 -7 -10 -9 -8 -9 7 0 15 -2 17 -9 6 -6 -9 -11 -10 -15 -2 -4 6 -12 8 -18 5 -6 -4 -14 -1 -18 6 -5 8 -10 9 -14 1z m64 -97 l0 -66 68 4 67 3 -3 -77 -4 -78 -64 0 -64 0 0 -64 0 -64 -75 -1 -75 -1 0 65 0 65 -59 0 -59 0 -4 78 -3 77 63 -3 62 -4 0 66 0 66 75 0 75 0 0 -66z"/> <path d="M780 1489 c0 -5 5 -7 10 -4 6 3 10 8 10 11 0 2 -4 4 -10 4 -5 0 -10 -5 -10 -11z"/> <path d="M980 1096 c0 -2 8 -10 18 -17 15 -13 16 -12 3 4 -13 16 -21 21 -21 13z"/> <path d="M1088 978 c5 -5 16 -8 23 -6 8 3 3 7 -10 11 -17 4 -21 3 -13 -5z"/> <path d="M560 1454 c-30 -19 -117 -69 -192 -112 l-138 -77 0 -245 0 -246 213 -123 c206 -119 213 -122 237 -107 14 9 109 64 213 123 103 59 186 112 184 117 -3 10 -200 127 -359 213 l-88 48 0 223 c0 122 -3 222 -7 221 -5 0 -33 -16 -63 -35z m36 -40 c-3 -8 0 -14 7 -14 8 0 8 -3 -2 -9 -8 -6 -11 -18 -8 -32 3 -13 7 -87 8 -164 1 -147 6 -170 39 -180 11 -4 17 -11 14 -17 -5 -7 -1 -9 9 -5 10 3 17 2 17 -3 0 -6 7 -10 15 -10 9 0 18 -6 21 -14 3 -8 14 -12 27 -9 16 3 18 2 9 -5 -10 -7 -5 -11 18 -15 19 -4 29 -11 25 -18 -4 -6 -1 -9 6 -7 8 1 25 -5 39 -14 14 -9 60 -37 103 -61 43 -25 78 -49 76 -53 -1 -5 -13 -15 -28 -22 -14 -7 -18 -10 -8 -7 10 3 16 1 13 -4 -9 -14 -47 -21 -40 -8 3 7 -1 4 -9 -5 -8 -10 -19 -18 -26 -18 -6 0 -11 -5 -11 -12 0 -6 -3 -9 -6 -5 -4 3 -21 -5 -39 -18 -17 -14 -35 -22 -38 -18 -4 3 -7 1 -7 -5 0 -6 -7 -9 -17 -5 -10 4 -14 2 -9 -5 3 -6 -3 -13 -14 -17 -11 -3 -20 -11 -20 -17 0 -5 -7 -8 -15 -5 -8 4 -17 2 -20 -4 -4 -5 -22 -17 -42 -27 l-36 -19 -53 29 c-30 16 -56 34 -60 39 -3 5 -11 6 -17 2 -7 -4 -5 2 3 12 14 17 14 18 -9 6 -13 -7 -21 -9 -17 -3 6 10 -18 25 -41 27 -6 0 -23 10 -37 23 -14 12 -26 19 -26 17 0 -3 -17 5 -37 19 -20 14 -39 23 -42 22 -3 -2 -7 7 -7 20 -1 13 1 22 5 19 4 -2 8 3 8 11 0 10 -4 11 -11 4 -17 -17 -29 -11 -15 8 13 15 12 16 -3 4 -9 -8 -21 -12 -25 -9 -4 3 -6 100 -3 217 3 134 1 215 -5 221 -7 7 -4 8 9 3 13 -5 17 -4 12 4 -5 8 -2 10 8 6 9 -3 16 -1 16 4 0 6 8 13 18 16 9 3 41 21 70 41 29 19 60 36 70 37 9 2 25 12 35 22 9 10 17 16 17 12 0 -4 13 2 29 13 15 11 31 18 35 14 3 -3 6 -1 6 6 0 7 5 9 11 6 6 -4 8 -13 5 -21z m-306 -629 c16 -19 1 -19 -24 0 -16 12 -17 15 -4 15 8 0 21 -7 28 -15z"/> <path d="M232 243 l3 -88 53 -3 c42 -2 52 0 52 12 0 12 -11 16 -40 16 -36 0 -40 3 -40 25 0 22 4 25 35 25 19 0 35 5 35 10 0 6 -16 10 -35 10 -28 0 -35 4 -35 20 0 33 3 35 43 32 28 -3 37 0 37 12 0 13 -11 16 -55 16 l-56 0 3 -87z"/> <path d="M366 243 c1 -55 6 -89 13 -91 7 -2 11 10 11 32 0 29 3 34 20 33 13 -1 24 -13 32 -32 6 -18 17 -32 24 -32 18 0 18 12 -2 42 -15 22 -15 26 0 40 20 21 20 44 0 73 -11 17 -25 22 -57 22 l-42 0 1 -87z m82 28 c-2 -20 -9 -27 -30 -29 -25 -3 -28 0 -28 26 0 36 4 40 36 34 20 -4 25 -10 22 -31z"/> <path d="M510 240 l0 -89 52 2 c67 3 80 27 14 27 -42 0 -46 2 -46 25 0 22 4 25 35 25 19 0 35 5 35 10 0 6 -16 10 -35 10 -32 0 -35 2 -35 30 0 28 2 29 41 27 26 -1 44 3 46 11 3 9 -11 12 -51 12 l-56 0 0 -90z"/> <path d="M741 288 l-35 -41 -29 37 c-16 20 -32 36 -35 36 -4 0 -6 -38 -4 -86 3 -60 7 -84 15 -81 14 4 15 18 6 70 -8 44 10 51 31 12 l14 -26 23 28 22 28 1 -57 c0 -33 4 -58 10 -58 17 0 21 23 18 103 l-3 76 -34 -41z"/> <path d="M800 243 l0 -88 55 -3 c44 -2 55 1 55 13 0 11 -11 15 -40 15 -36 0 -40 3 -40 25 0 22 4 25 35 25 19 0 35 5 35 10 0 6 -16 10 -35 10 -32 0 -35 3 -35 28 0 26 2 27 40 24 32 -3 40 -1 40 12 0 13 -11 16 -55 16 l-55 0 0 -87z"/> <path d="M938 240 l3 -92 42 6 c59 10 77 30 77 85 -1 62 -18 83 -77 88 l-48 5 3 -92z m86 44 c36 -35 10 -104 -40 -104 -23 0 -24 3 -24 60 0 57 1 60 24 60 14 0 32 -7 40 -16z"/> <path d="M1090 239 c0 -66 3 -90 12 -87 17 6 18 178 1 178 -10 0 -13 -25 -13 -91z"/> <path d="M1140 262 c0 -53 4 -72 18 -84 31 -28 57 -30 85 -7 25 19 27 27 27 90 0 54 -3 69 -15 69 -11 0 -14 -12 -11 -52 4 -70 -2 -87 -31 -94 -35 -9 -42 4 -44 79 -1 49 -5 67 -15 67 -11 0 -14 -17 -14 -68z"/> <path d="M1294 245 c1 -65 5 -90 14 -93 11 -3 13 9 10 57 l-3 62 22 -25 c27 -31 40 -33 48 -6 12 39 26 20 24 -32 -2 -39 0 -53 11 -53 10 0 13 21 14 88 l1 88 -35 -41 -36 -42 -35 43 -35 42 0 -88z"/> </g> </svg>